<svg width="2000" height="2000" viewBox="0 0 2000 2000" fill="none" xmlns="http://www.w3.org/2000/svg">
<path d="M252.811 172.922C244.564 172.961 236.693 173.662 229.764 174.889C209.354 178.494 205.65 186.041 205.65 199.961V218.342H253.879V224.469H187.549C173.533 224.469 161.26 232.893 157.42 248.924C152.99 267.293 152.795 278.758 157.42 297.939C160.848 312.219 169.035 322.391 183.053 322.391H199.637V300.355C199.637 284.436 213.408 270.395 229.766 270.395H277.939C291.35 270.395 302.053 259.352 302.053 245.887V199.963C302.053 186.891 291.025 177.072 277.939 174.891C269.65 173.512 261.055 172.885 252.811 172.922ZM226.729 187.705C231.709 187.705 235.779 191.84 235.779 196.926C235.779 201.99 231.711 206.086 226.729 206.086C221.729 206.086 217.68 201.99 217.68 196.926C217.678 191.84 221.729 187.705 226.729 187.705Z" fill="url(#paint0_linear_1_99)"/>
<path d="M308.066 224.469V245.887C308.066 262.488 293.988 276.463 277.937 276.463H229.764C216.568 276.463 205.65 287.758 205.65 300.973V346.9C205.65 359.969 217.014 367.658 229.764 371.406C245.029 375.893 259.67 376.705 277.937 371.406C290.078 367.889 302.051 360.814 302.051 346.9V328.518H253.879V322.389H326.168C340.184 322.389 345.41 312.613 350.285 297.938C355.32 282.83 355.103 268.301 350.285 248.922C346.82 234.967 340.205 224.467 326.168 224.467L308.066 224.469ZM280.971 340.771C285.973 340.771 290.021 344.867 290.021 349.936C290.021 355.018 285.971 359.152 280.971 359.152C275.99 359.152 271.922 355.018 271.922 349.936C271.922 344.867 275.99 340.771 280.971 340.771Z" fill="url(#paint1_linear_1_99)"/>
<path opacity="0.444" d="M319.057 382.588C319.057 389.508 290.119 395.119 254.426 395.119C218.73 395.119 189.793 389.508 189.793 382.588C189.793 375.668 218.729 370.055 254.426 370.055C290.119 370.055 319.057 375.664 319.057 382.588Z" fill="url(#paint2_radial_1_99)"/>
<path d="M335.555 893.547C334.688 893.547 333.879 893.316 333.128 892.912L325.442 888.347C324.286 887.711 324.864 887.48 325.211 887.364C326.771 886.844 327.06 886.728 328.678 885.804C328.852 885.688 329.083 885.746 329.256 885.862L335.151 889.387C335.382 889.502 335.671 889.502 335.844 889.387L358.901 876.038C359.132 875.922 359.248 875.691 359.248 875.402V848.762C359.248 848.473 359.132 848.242 358.901 848.126L335.844 834.835C335.613 834.719 335.324 834.719 335.151 834.835L312.093 848.126C311.862 848.242 311.746 848.531 311.746 848.762V875.402C311.746 875.633 311.862 875.922 312.093 876.038L318.392 879.678C321.802 881.412 323.94 879.389 323.94 877.367V851.073C323.94 850.727 324.229 850.38 324.633 850.38H327.58C327.927 850.38 328.274 850.669 328.274 851.073V877.367C328.274 881.932 325.789 884.59 321.455 884.59C320.126 884.59 319.086 884.59 316.138 883.145L310.071 879.678C308.568 878.812 307.644 877.193 307.644 875.46V848.82C307.644 847.086 308.568 845.468 310.071 844.601L333.128 831.252C334.573 830.443 336.538 830.443 337.982 831.252L361.039 844.601C362.542 845.468 363.467 847.086 363.467 848.82V875.46C363.467 877.193 362.542 878.812 361.039 879.678L337.982 893.027C337.231 893.374 336.364 893.547 335.555 893.547ZM342.663 875.229C332.551 875.229 330.47 870.606 330.47 866.676C330.47 866.329 330.759 865.983 331.164 865.983H334.169C334.515 865.983 334.804 866.214 334.804 866.561C335.267 869.623 336.596 871.126 342.721 871.126C347.575 871.126 349.656 870.028 349.656 867.427C349.656 865.925 349.078 864.827 341.508 864.076C335.209 863.44 331.279 862.053 331.279 857.026C331.279 852.345 335.209 849.571 341.797 849.571C349.193 849.571 352.834 852.114 353.297 857.661C353.297 857.834 353.239 858.008 353.123 858.181C353.007 858.297 352.834 858.412 352.661 858.412H349.656C349.367 858.412 349.078 858.181 349.02 857.892C348.327 854.714 346.535 853.674 341.797 853.674C336.48 853.674 335.844 855.523 335.844 856.91C335.844 858.586 336.596 859.106 343.761 860.03C350.869 860.955 354.221 862.284 354.221 867.254C354.163 872.339 350.003 875.229 342.663 875.229Z" fill="#539E43"/>
<path d="M264.014 789.356C264.014 788.316 263.436 787.333 262.511 786.813L238.009 772.713C237.604 772.482 237.142 772.366 236.68 772.308H236.449C235.987 772.308 235.524 772.482 235.12 772.713L210.618 786.813C209.693 787.333 209.115 788.316 209.115 789.356L209.173 827.265C209.173 827.785 209.462 828.305 209.924 828.536C210.387 828.825 210.964 828.825 211.369 828.536L225.932 820.215C226.856 819.695 227.434 818.712 227.434 817.672V799.931C227.434 798.891 228.012 797.909 228.937 797.389L235.12 793.806C235.582 793.517 236.102 793.401 236.622 793.401C237.142 793.401 237.662 793.517 238.067 793.806L244.25 797.389C245.175 797.909 245.753 798.891 245.753 799.931V817.672C245.753 818.712 246.331 819.695 247.255 820.215L261.818 828.536C262.043 828.678 262.303 828.753 262.569 828.753C262.835 828.753 263.096 828.678 263.32 828.536C263.783 828.305 264.072 827.785 264.072 827.265L264.014 789.356ZM381.785 737.174C381.323 736.942 380.745 736.942 380.34 737.174C379.878 737.463 379.589 737.925 379.589 738.445V776.007C379.589 776.354 379.416 776.7 379.069 776.932C378.723 777.105 378.376 777.105 378.029 776.932L371.904 773.407C371.455 773.151 370.947 773.017 370.43 773.017C369.913 773.017 369.406 773.151 368.956 773.407L344.454 787.565C343.53 788.085 342.952 789.067 342.952 790.107V818.365C342.952 819.405 343.53 820.388 344.454 820.908L368.956 835.066C369.406 835.322 369.913 835.456 370.43 835.456C370.947 835.456 371.455 835.322 371.904 835.066L396.406 820.908C397.33 820.388 397.908 819.405 397.908 818.365V747.922C397.908 746.824 397.33 745.842 396.406 745.322L381.785 737.174ZM379.532 809.062C379.532 809.351 379.416 809.581 379.185 809.697L370.806 814.551C370.689 814.608 370.56 814.638 370.43 814.638C370.3 814.638 370.171 814.608 370.054 814.551L361.675 809.697C361.444 809.581 361.328 809.293 361.328 809.062V799.353C361.328 799.064 361.444 798.833 361.675 798.718L370.054 793.863C370.171 793.806 370.3 793.776 370.43 793.776C370.56 793.776 370.689 793.806 370.806 793.863L379.185 798.718C379.416 798.833 379.532 799.122 379.532 799.353V809.062ZM463.324 799.122C464.249 798.602 464.769 797.62 464.769 796.579V789.703C464.769 788.663 464.191 787.68 463.324 787.16L438.995 773.06C438.546 772.804 438.038 772.67 437.522 772.67C437.005 772.67 436.497 772.804 436.048 773.06L411.546 787.218C410.621 787.738 410.043 788.72 410.043 789.76V818.019C410.043 819.059 410.621 820.041 411.546 820.561L435.874 834.43C436.799 834.95 437.897 834.95 438.764 834.43L453.5 826.225C453.962 825.993 454.251 825.473 454.251 824.953C454.251 824.433 453.962 823.913 453.5 823.682L428.882 809.524C428.42 809.235 428.131 808.773 428.131 808.253V799.412C428.131 798.892 428.42 798.372 428.882 798.14L436.568 793.748C436.793 793.606 437.053 793.531 437.319 793.531C437.585 793.531 437.846 793.606 438.07 793.748L445.756 798.14C446.219 798.429 446.507 798.891 446.507 799.412V806.346C446.507 806.866 446.796 807.386 447.259 807.617C447.484 807.759 447.744 807.834 448.01 807.834C448.276 807.834 448.537 807.759 448.761 807.617L463.324 799.122Z" fill="#333333"/>
<path d="M437.146 797.793C437.232 797.736 437.332 797.706 437.435 797.706C437.538 797.706 437.638 797.736 437.724 797.793L442.405 800.509C442.578 800.625 442.694 800.798 442.694 801.029V806.461C442.694 806.692 442.579 806.866 442.405 806.981L437.724 809.697C437.638 809.754 437.538 809.784 437.435 809.784C437.332 809.784 437.232 809.754 437.146 809.697L432.466 806.981C432.292 806.866 432.177 806.692 432.177 806.461V801.029C432.177 800.798 432.292 800.624 432.466 800.509L437.146 797.793Z" fill="#539E43"/>
<path d="M304.986 773.175C304.536 772.92 304.029 772.786 303.512 772.786C302.995 772.786 302.488 772.92 302.039 773.175L277.71 787.217C276.785 787.737 276.265 788.719 276.265 789.759V817.902C276.265 818.942 276.843 819.925 277.71 820.445L302.039 834.487C302.488 834.743 302.995 834.877 303.512 834.877C304.029 834.877 304.536 834.743 304.986 834.487L329.315 820.445C330.239 819.925 330.76 818.942 330.76 817.902V789.76C330.76 788.72 330.181 787.737 329.315 787.217L304.986 773.175Z" fill="url(#paint3_linear_1_99)"/>
<mask id="mask0_1_99" style="mask-type:luminance" maskUnits="userSpaceOnUse" x="276" y="772" width="55" height="63">
<path d="M304.986 773.175C304.536 772.92 304.029 772.786 303.512 772.786C302.995 772.786 302.488 772.92 302.039 773.175L277.71 787.217C276.785 787.737 276.265 788.719 276.265 789.759V817.902C276.265 818.942 276.843 819.925 277.71 820.445L302.039 834.487C302.488 834.743 302.995 834.877 303.512 834.877C304.029 834.877 304.536 834.743 304.986 834.487L329.315 820.445C330.239 819.925 330.76 818.942 330.76 817.902V789.76C330.76 788.72 330.181 787.737 329.315 787.217L304.986 773.175Z" fill="white"/>
</mask>
<g mask="url(#mask0_1_99)">
<path d="M329.372 787.217L304.928 773.175C304.688 773.054 304.436 772.957 304.177 772.886L276.785 819.81C277.012 820.087 277.286 820.322 277.595 820.504L302.039 834.546C302.732 834.951 303.541 835.066 304.292 834.835L330.008 787.796C329.835 787.565 329.603 787.39 329.372 787.217Z" fill="url(#paint4_linear_1_99)"/>
</g>
<mask id="mask1_1_99" style="mask-type:luminance" maskUnits="userSpaceOnUse" x="276" y="772" width="55" height="63">
<path d="M304.986 773.175C304.536 772.92 304.029 772.786 303.512 772.786C302.995 772.786 302.488 772.92 302.039 773.175L277.71 787.217C276.785 787.737 276.265 788.719 276.265 789.759V817.902C276.265 818.942 276.843 819.925 277.71 820.445L302.039 834.487C302.488 834.743 302.995 834.877 303.512 834.877C304.029 834.877 304.536 834.743 304.986 834.487L329.315 820.445C330.239 819.925 330.76 818.942 330.76 817.902V789.76C330.76 788.72 330.181 787.737 329.315 787.217L304.986 773.175Z" fill="white"/>
</mask>
<g mask="url(#mask1_1_99)">
<path fill-rule="evenodd" clip-rule="evenodd" d="M329.43 820.445C330.124 820.041 330.644 819.347 330.875 818.596L304.061 772.828C303.367 772.713 302.616 772.77 301.981 773.175L277.71 787.16L303.887 834.892C304.268 834.831 304.638 834.714 304.985 834.546L329.43 820.445Z" fill="url(#paint5_linear_1_99)"/>
<path fill-rule="evenodd" clip-rule="evenodd" d="M329.43 820.445L305.044 834.488C304.699 834.663 304.328 834.78 303.946 834.834L304.408 835.701L331.453 820.041V819.694L330.759 818.538C330.644 819.347 330.124 820.041 329.43 820.445Z" fill="url(#paint6_linear_1_99)"/>
<path fill-rule="evenodd" clip-rule="evenodd" d="M329.43 820.445L305.044 834.488C304.699 834.663 304.328 834.78 303.946 834.834L304.408 835.701L331.453 820.041V819.694L330.759 818.538C330.644 819.347 330.124 820.041 329.43 820.445Z" fill="url(#paint7_linear_1_99)"/>
</g>
<path d="M1601.92 219.917H1581.08C1575.56 219.917 1570.26 222.112 1566.35 226.019C1562.44 229.926 1560.25 235.225 1560.25 240.75V324.083H1581.08V282.417H1601.92V324.083H1622.75V240.75C1622.75 235.225 1620.56 229.926 1616.65 226.019C1612.74 222.112 1607.44 219.917 1601.92 219.917ZM1601.92 261.583H1581.08V240.75H1601.92M1674.83 219.917H1633.17V324.083H1654V282.417H1674.83C1680.36 282.417 1685.66 280.222 1689.56 276.315C1693.47 272.408 1695.67 267.109 1695.67 261.583V240.75C1695.67 235.225 1693.47 229.926 1689.56 226.019C1685.66 222.112 1680.36 219.917 1674.83 219.917ZM1674.83 261.583H1654V240.75H1674.83M1737.33 240.75V303.25H1747.75V324.083H1706.08V303.25H1716.5V240.75H1706.08V219.917H1747.75V240.75H1737.33Z" fill="black"/>
<path d="M1699.89 794.302C1698.69 794.302 1697.88 794.448 1697.03 794.646V794.781H1697.18C1697.74 795.865 1698.7 796.656 1699.41 797.625C1699.97 798.74 1700.45 799.854 1701.01 800.958L1701.16 800.802C1702.14 800.115 1702.61 799.01 1702.61 797.333C1702.2 796.844 1702.14 796.354 1701.78 795.875C1701.36 795.177 1700.47 794.833 1699.91 794.281L1699.89 794.302ZM1589.1 931.74H1579.45C1579.17 916.394 1578.24 901.067 1576.64 885.802H1576.55L1561.86 931.74H1554.52L1539.94 885.802H1539.83C1538.69 901.091 1538.02 916.41 1537.8 931.74H1529C1529.58 911.253 1531 892.052 1533.27 874.135H1545.25L1559.16 916.469H1559.24L1573.27 874.135H1584.68C1587.2 895.135 1588.68 914.337 1589.14 931.74H1589.1ZM1630.95 889.24C1627.01 910.552 1621.83 926.038 1615.41 935.698C1610.39 943.156 1604.89 946.882 1598.92 946.875C1597.33 946.875 1595.37 946.396 1593.02 945.438V940.292C1594.17 940.472 1595.51 940.563 1597.04 940.563C1599.83 940.563 1602.08 939.792 1603.78 938.25C1605.83 936.375 1606.85 934.274 1606.85 931.948C1606.85 930.33 1606.06 927.052 1604.46 922.115L1593.9 889.24H1603.38L1610.95 913.823C1612.66 919.406 1613.37 923.306 1613.08 925.521C1617.25 914.424 1620.15 902.33 1621.78 889.24H1630.95ZM1759.33 931.74H1731.94V874.135H1741.16V924.656H1759.33V931.74ZM1724.75 933.146L1714.17 927.938C1715.11 927.153 1716 926.285 1716.82 925.333C1721.33 920.056 1723.58 912.233 1723.57 901.865C1723.57 882.802 1716.09 873.267 1701.13 873.26C1693.79 873.26 1688.06 875.681 1683.94 880.521C1679.45 885.813 1677.21 893.608 1677.21 903.906C1677.2 914.038 1679.19 921.469 1683.19 926.198C1686.83 930.469 1692.32 932.604 1699.68 932.604C1702.43 932.604 1704.94 932.264 1707.23 931.583L1721.03 939.625L1724.78 933.146H1724.75ZM1690.46 920.208C1688.12 916.451 1686.95 910.424 1686.95 902.125C1686.95 887.611 1691.36 880.354 1700.18 880.354C1704.8 880.354 1708.19 882.09 1710.35 885.563C1712.69 889.333 1713.85 895.316 1713.85 903.51C1713.85 918.142 1709.44 925.462 1700.63 925.469C1695.99 925.469 1692.6 923.733 1690.44 920.26L1690.46 920.208ZM1673.19 915.781C1673.19 920.684 1671.4 924.698 1667.81 927.823C1664.24 930.948 1659.44 932.51 1653.4 932.51C1647.74 932.51 1642.31 930.719 1637.01 927.146L1639.48 922.188C1644.03 924.472 1648.17 925.611 1651.87 925.604C1655.33 925.604 1658.05 924.84 1660.03 923.312C1661.02 922.569 1661.82 921.6 1662.37 920.487C1662.91 919.373 1663.18 918.145 1663.16 916.906C1663.16 913.469 1660.76 910.552 1656.41 908.104C1652.36 905.885 1644.29 901.26 1644.29 901.26C1639.9 898.063 1637.71 894.635 1637.71 889C1637.71 884.319 1639.34 880.552 1642.6 877.698C1645.88 874.809 1650.11 873.368 1655.31 873.375C1660.65 873.375 1665.51 874.799 1669.9 877.646L1667.68 882.604C1664.18 881.061 1660.41 880.246 1656.59 880.208C1653.64 880.208 1651.37 880.924 1649.78 882.354C1648.98 883.022 1648.33 883.856 1647.89 884.799C1647.44 885.741 1647.21 886.77 1647.2 887.812C1647.2 891.229 1649.64 894.167 1654.14 896.667C1658.23 898.906 1666.5 903.646 1666.5 903.646C1671.01 906.823 1673.25 910.208 1673.25 915.813L1673.19 915.781ZM1770.92 854.823C1765.34 854.677 1761.02 855.24 1757.41 856.781C1756.36 857.198 1754.7 857.198 1754.55 858.521C1755.13 859.073 1755.21 859.979 1755.7 860.75C1756.53 862.146 1757.97 864.01 1759.3 864.99C1760.75 866.149 1762.23 867.226 1763.75 868.219C1766.46 869.885 1769.53 870.875 1772.19 872.552C1773.7 873.531 1775.24 874.771 1776.77 875.813C1777.53 876.333 1778.02 877.271 1779 877.604V877.396C1778.52 876.771 1778.38 875.865 1777.91 875.167C1777.21 874.469 1776.51 873.844 1775.82 873.156C1773.78 870.459 1771.34 868.088 1768.58 866.125C1766.35 864.604 1761.48 862.479 1760.56 859.927L1760.43 859.781C1761.95 859.646 1763.76 859.094 1765.22 858.677C1767.58 858.052 1769.75 858.188 1772.2 857.573C1773.31 857.281 1774.42 856.955 1775.53 856.594V855.969C1774.28 854.719 1773.34 853.021 1772.05 851.854C1768.44 848.707 1764.6 845.841 1760.55 843.281C1758.36 841.885 1755.59 840.99 1753.29 839.802C1752.46 839.385 1751.06 839.177 1750.58 838.479C1749.33 836.958 1748.6 834.938 1747.72 833.125C1745.68 829.156 1743.78 825.115 1742.02 821.01C1740.77 818.281 1740.01 815.563 1738.48 813.063C1731.29 801.219 1723.51 794.042 1711.54 787.021C1708.97 785.563 1705.89 784.938 1702.62 784.167C1700.89 784.083 1699.15 783.958 1697.42 783.885C1696.27 783.396 1695.17 782.073 1694.19 781.438C1690.23 778.938 1679.98 773.521 1677.06 780.688C1675.19 785.208 1679.84 789.667 1681.46 791.958C1682.66 793.552 1684.17 795.375 1685 797.167C1685.49 798.375 1685.63 799.615 1686.11 800.875C1687.22 803.938 1688.27 807.354 1689.73 810.219C1690.49 811.677 1691.32 813.208 1692.3 814.521C1692.86 815.281 1693.82 815.635 1694.04 816.885C1693.06 818.302 1693 820.365 1692.44 822.094C1689.94 829.979 1690.92 839.729 1694.46 845.531C1695.57 847.26 1698.23 851.094 1701.78 849.625C1704.91 848.375 1704.22 844.417 1705.11 840.927C1705.32 840.094 1705.19 839.542 1705.61 838.979V839.135C1706.59 841.094 1707.57 842.958 1708.47 844.917C1710.61 848.333 1714.36 851.875 1717.5 854.24C1719.17 855.49 1720.49 857.656 1722.57 858.427V858.219H1722.42C1721.97 857.615 1721.38 857.323 1720.81 856.833C1719.49 855.539 1718.27 854.146 1717.17 852.667C1714.24 848.65 1711.64 844.408 1709.39 839.979C1708.24 837.792 1707.28 835.438 1706.36 833.281C1705.95 832.448 1705.95 831.198 1705.25 830.781C1704.21 832.302 1702.68 833.625 1701.92 835.5C1700.59 838.5 1700.46 842.188 1699.96 846.021C1699.68 846.094 1699.81 846.021 1699.68 846.167C1697.45 845.625 1696.69 843.313 1695.85 841.375C1693.77 836.427 1693.43 828.479 1695.23 822.781C1695.72 821.323 1697.8 816.719 1696.97 815.323C1696.53 814 1695.16 813.24 1694.4 812.167C1693.42 810.769 1692.58 809.28 1691.9 807.719C1690.23 803.823 1689.4 799.51 1687.58 795.615C1686.75 793.813 1685.29 791.927 1684.1 790.271C1682.78 788.396 1681.32 787.073 1680.27 784.854C1679.93 784.094 1679.44 782.833 1679.99 782C1680.14 781.438 1680.43 781.219 1680.97 781.063C1681.89 780.313 1684.46 781.292 1685.36 781.708C1687.94 782.75 1690.1 783.729 1692.26 785.188C1693.24 785.875 1694.29 787.198 1695.54 787.542H1697C1699.23 788.031 1701.74 787.688 1703.82 788.302C1707.52 789.49 1710.85 791.219 1713.84 793.094C1723.06 798.977 1730.55 807.192 1735.56 816.906C1736.4 818.51 1736.76 819.979 1737.52 821.646C1738.98 825.083 1740.78 828.552 1742.26 831.875C1743.72 835.156 1745.13 838.5 1747.22 841.219C1748.26 842.677 1752.45 843.438 1754.32 844.198C1755.71 844.823 1757.86 845.396 1759.11 846.156C1761.51 847.615 1763.84 849.281 1766.09 850.885C1767.24 851.677 1770.71 853.417 1770.92 854.823Z" fill="black"/>
<path d="M871.221 1073.91C872.754 1061.15 872.295 1059.27 881.799 1061.34L884.211 1061.55C891.52 1061.88 901.08 1060.38 906.697 1057.77C918.789 1052.16 925.957 1042.79 914.037 1045.25C886.842 1050.86 884.973 1041.65 884.973 1041.65C913.689 999.045 925.693 944.957 915.33 931.717C887.068 895.605 838.148 912.682 837.33 913.123L837.068 913.172C831.695 912.057 825.682 911.391 818.926 911.281C806.619 911.078 797.281 914.508 790.197 919.879C790.197 919.879 702.926 883.924 706.986 965.096C707.85 982.363 731.736 1095.76 760.228 1061.51C770.643 1048.98 780.705 1038.39 780.705 1038.39C785.701 1041.71 791.686 1043.41 797.959 1042.8L798.445 1042.38C798.293 1043.94 798.359 1045.46 798.639 1047.26C791.301 1055.46 793.457 1056.9 778.783 1059.92C763.936 1062.98 772.658 1068.43 778.352 1069.85C785.256 1071.58 801.227 1074.02 812.02 1058.92L811.59 1060.64C814.469 1062.94 814.275 1077.2 814.682 1087.38C815.09 1097.56 815.771 1107.06 817.848 1112.67C819.924 1118.27 822.373 1132.7 841.658 1128.56C857.775 1125.12 870.098 1120.15 871.221 1073.91Z" fill="black"/>
<path d="M835.379 1138.64C826.85 1138.64 821.295 1135.34 817.922 1132.16C812.83 1127.35 810.811 1121.16 809.604 1117.46L809.082 1115.92C806.652 1109.36 805.828 1099.92 805.34 1087.76C805.266 1085.93 805.215 1084.05 805.158 1082.06C805.117 1080.6 805.066 1078.77 804.992 1076.86C801.919 1078.32 798.658 1079.35 795.301 1079.92C789.287 1080.95 782.822 1080.61 776.082 1078.93C771.326 1077.74 766.385 1075.27 763.568 1071.47C755.359 1078.66 747.529 1077.68 743.264 1076.26C735.738 1073.75 729.004 1066.7 722.674 1054.7C718.164 1046.16 713.803 1035.02 709.709 1021.61C702.58 998.25 698.051 973.646 697.648 965.568C696.383 940.285 703.189 922.203 717.875 911.83C741.041 895.467 776.141 905.09 788.937 909.459C797.535 904.277 807.65 901.756 819.08 901.937C825.219 902.037 831.064 902.576 836.494 903.545C842.158 901.764 853.346 899.207 866.152 899.367C889.748 899.648 909.301 908.844 922.693 925.959C932.252 938.17 927.525 963.812 923.859 978.012C918.699 997.984 909.658 1019.23 898.553 1037.72C901.568 1037.74 905.937 1037.38 912.148 1036.1C924.402 1033.57 927.986 1040.14 928.959 1043.08C932.855 1054.88 915.918 1063.8 910.635 1066.25C903.865 1069.39 892.828 1071.31 883.789 1070.89L883.395 1070.87L881.02 1070.66L880.785 1072.64L880.559 1074.57C879.951 1098.01 876.604 1112.85 869.715 1122.66C862.494 1132.94 852.459 1135.82 843.619 1137.71C840.604 1138.36 837.863 1138.64 835.379 1138.64ZM817.43 1053.35C822.936 1057.75 823.418 1066.04 823.85 1081.54C823.904 1083.47 823.955 1085.3 824.023 1087.01C824.23 1092.19 824.717 1104.3 826.615 1109.43C826.883 1110.15 827.123 1110.88 827.377 1111.66C829.492 1118.14 830.553 1121.39 839.699 1119.43C847.377 1117.79 851.324 1116.31 854.414 1111.91C858.904 1105.52 861.416 1092.65 861.877 1073.68L871.219 1073.91L861.941 1072.79L862.215 1070.48C863.104 1062.84 863.744 1057.32 868.848 1053.68C872.943 1050.75 877.609 1051.03 881.326 1051.7C877.242 1048.62 876.113 1045 875.812 1043.51L875.033 1039.68L877.223 1036.43C889.834 1017.72 900.232 994.721 905.756 973.334C911.432 951.359 909.701 939.689 907.971 937.482C885.062 908.211 845.338 920.297 841.189 921.668L840.488 922.047L836.973 922.701L835.172 922.328C830.207 921.297 824.691 920.727 818.779 920.631C809.49 920.475 801.996 922.67 795.852 927.332L791.588 930.564L786.641 928.527C776.07 924.205 745.023 915.516 728.641 927.119C719.547 933.561 715.404 946.182 716.326 964.633C716.631 970.725 720.77 993.785 727.598 1016.15C737.033 1047.06 745.607 1057.33 749.187 1058.52C749.812 1058.73 751.434 1057.47 753.047 1055.53C759.774 1047.47 766.739 1039.61 773.934 1031.96L779.344 1026.27L785.885 1030.61C788.521 1032.36 791.43 1033.36 794.416 1033.54L810.016 1020.24L807.756 1043.3C807.705 1043.82 807.68 1044.53 807.883 1045.83L808.562 1050.21L805.613 1053.5L805.273 1053.88L813.844 1057.84L817.43 1053.35Z" fill="black"/>
<path d="M914.037 1045.25C886.84 1050.86 884.971 1041.65 884.971 1041.65C913.687 999.043 925.691 944.953 915.332 931.717C887.07 895.607 838.146 912.684 837.33 913.127L837.066 913.174C831.693 912.059 825.68 911.395 818.92 911.285C806.613 911.084 797.279 914.512 790.195 919.883C790.195 919.883 702.922 883.93 706.98 965.1C707.844 982.369 731.73 1095.76 760.223 1061.51C770.637 1048.99 780.697 1038.4 780.697 1038.4C785.695 1041.72 791.678 1043.41 797.949 1042.8L798.437 1042.39C798.285 1043.94 798.355 1045.46 798.633 1047.27C791.293 1055.47 793.449 1056.91 778.775 1059.93C763.928 1062.98 772.65 1068.43 778.346 1069.86C785.248 1071.58 801.221 1074.03 812.012 1058.92L811.58 1060.64C814.457 1062.95 816.477 1075.63 816.139 1087.12C815.801 1098.62 815.572 1106.51 817.84 1112.67C820.105 1118.84 822.363 1132.71 841.652 1128.57C857.769 1125.12 866.121 1116.17 867.285 1101.24C868.109 1090.62 869.975 1092.19 870.094 1082.7L871.592 1078.21C873.318 1063.82 871.865 1059.18 881.797 1061.34L884.209 1061.55C891.518 1061.88 901.082 1060.37 906.697 1057.77C918.787 1052.16 925.957 1042.79 914.037 1045.25Z" fill="#336791"/>
<path d="M836.353 1132.88C820.275 1132.88 815.182 1120.15 813.098 1114.94C810.047 1107.31 809.389 1077.7 810.068 1053.41C810.078 1053 810.169 1052.6 810.336 1052.22C810.503 1051.85 810.742 1051.51 811.04 1051.23C811.337 1050.95 811.688 1050.73 812.071 1050.59C812.454 1050.44 812.862 1050.37 813.271 1050.38C813.681 1050.4 814.083 1050.49 814.457 1050.65C814.831 1050.82 815.168 1051.06 815.449 1051.36C815.73 1051.66 815.95 1052 816.096 1052.39C816.241 1052.77 816.311 1053.18 816.299 1053.59C815.516 1081.6 816.627 1106.98 818.885 1112.63C822.408 1121.43 827.752 1129.14 842.859 1125.9C857.201 1122.82 862.572 1117.39 864.965 1103.52C866.801 1092.88 870.432 1062.6 870.879 1056.62C870.909 1056.21 871.019 1055.82 871.203 1055.45C871.387 1055.09 871.642 1054.76 871.952 1054.49C872.262 1054.23 872.622 1054.02 873.011 1053.89C873.4 1053.77 873.811 1053.72 874.219 1053.75C875.043 1053.81 875.808 1054.2 876.347 1054.82C876.886 1055.45 877.155 1056.26 877.094 1057.09C876.627 1063.31 873.014 1093.53 871.107 1104.58C868.283 1120.96 860.98 1128.39 844.166 1131.99C841.309 1132.61 838.713 1132.88 836.353 1132.88ZM749.174 1070.69C747.768 1070.69 746.373 1070.46 745.041 1070.01C734.598 1066.52 724.65 1049.52 715.475 1019.45C708.49 996.566 704.064 972.68 703.676 964.916C702.525 941.9 708.451 925.617 721.293 916.521C746.697 898.521 789.434 915.662 791.24 916.4C792.006 916.713 792.615 917.317 792.935 918.079C793.256 918.841 793.26 919.7 792.947 920.465C792.635 921.23 792.031 921.84 791.269 922.16C790.506 922.48 789.648 922.485 788.883 922.172C788.471 922.004 747.49 905.586 724.883 921.615C713.902 929.4 708.861 943.865 709.898 964.605C710.225 971.147 714.359 994.459 721.434 1017.63C729.625 1044.47 738.947 1061.41 747.012 1064.1C748.277 1064.52 752.129 1065.8 757.635 1059.18C764.055 1051.47 770.717 1043.96 777.609 1036.67C778.186 1036.09 778.965 1035.77 779.78 1035.76C780.594 1035.75 781.379 1036.06 781.967 1036.62C782.556 1037.19 782.9 1037.96 782.926 1038.77C782.953 1039.59 782.66 1040.38 782.109 1040.98C782.016 1041.08 772.643 1050.88 762.428 1063.17C757.59 1068.98 752.953 1070.69 749.174 1070.69ZM884.777 1044.43C884.212 1044.43 883.658 1044.28 883.174 1043.99C882.69 1043.69 882.294 1043.28 882.029 1042.78C881.764 1042.28 881.639 1041.72 881.668 1041.15C881.698 1040.59 881.88 1040.04 882.195 1039.57C911.225 996.498 921.414 944.449 912.687 933.297C901.703 919.262 886.193 911.932 866.586 911.508C852.068 911.195 840.529 914.902 838.643 915.549L838.168 915.742C836.271 916.338 834.816 915.299 834.268 914.084C833.955 913.388 833.907 912.601 834.134 911.873C834.361 911.144 834.847 910.524 835.5 910.129C835.59 910.076 835.875 909.955 836.338 909.785C839.543 908.611 851.258 905.096 865.768 905.262C887.463 905.492 905.385 913.857 917.592 929.457C923.367 936.838 923.381 953.842 917.629 976.111C911.766 998.816 900.732 1023.22 887.361 1043.06C886.764 1043.95 885.779 1044.43 884.777 1044.43ZM886.262 1064.37C881.305 1064.37 876.861 1063.67 874.201 1062.08C871.467 1060.44 870.945 1058.21 870.877 1057.03C870.131 1043.93 877.361 1041.65 881.049 1040.61C880.535 1039.83 879.805 1038.91 879.049 1037.97C876.898 1035.28 873.953 1031.6 871.684 1026.1C871.328 1025.24 870.215 1023.24 868.926 1020.93C861.936 1008.39 847.391 982.309 856.734 968.951C861.059 962.77 869.67 960.336 882.357 961.693C878.625 950.322 860.852 914.752 818.678 914.061C805.994 913.85 795.592 917.75 787.775 925.643C770.275 943.316 770.908 975.295 770.918 975.615C770.929 976.024 770.859 976.432 770.712 976.814C770.566 977.196 770.345 977.545 770.064 977.842C769.782 978.139 769.444 978.377 769.071 978.544C768.697 978.71 768.294 978.802 767.885 978.813C767.476 978.823 767.068 978.753 766.686 978.607C766.304 978.46 765.955 978.24 765.658 977.958C765.361 977.676 765.123 977.339 764.956 976.965C764.789 976.591 764.698 976.188 764.687 975.779C764.648 974.359 763.996 940.801 783.348 921.256C792.404 912.109 804.326 907.594 818.781 907.83C845.762 908.273 863.129 921.99 872.945 933.418C883.646 945.873 888.893 959.611 889.324 964.197C889.646 967.607 887.199 968.289 886.705 968.391L885.58 968.416C873.129 966.422 865.141 967.807 861.838 972.525C854.73 982.684 868.49 1007.36 874.365 1017.89C875.865 1020.58 876.947 1022.53 877.443 1023.72C879.373 1028.4 881.891 1031.55 883.912 1034.08C885.691 1036.3 887.232 1038.23 887.783 1040.49C888.039 1040.94 891.67 1046.31 913.215 1041.86C918.615 1040.75 921.853 1041.7 922.844 1044.69C924.791 1050.58 913.865 1057.45 907.816 1060.26C902.396 1062.78 893.746 1064.37 886.262 1064.37ZM877.09 1056.52C877.773 1057.21 881.193 1058.4 888.275 1058.09C894.572 1057.82 901.213 1056.46 905.197 1054.61C910.293 1052.24 913.695 1049.59 915.457 1047.79L914.48 1047.96C900.705 1050.81 890.961 1050.43 885.519 1046.84C885.154 1046.6 884.801 1046.34 884.465 1046.05C883.875 1046.29 883.33 1046.44 882.941 1046.55C879.855 1047.41 876.664 1048.31 877.09 1056.52ZM788.102 1073.93C784.68 1073.93 781.078 1073.46 777.4 1072.54C773.59 1071.59 767.166 1068.72 767.264 1064.01C767.375 1058.72 775.064 1057.14 777.959 1056.54C788.416 1054.39 789.098 1053.52 792.365 1049.37C793.318 1048.16 794.504 1046.66 796.121 1044.85C798.521 1042.17 801.144 1040.8 803.918 1040.8C805.85 1040.8 807.434 1041.46 808.48 1041.89C811.816 1043.28 814.6 1046.62 815.744 1050.62C816.777 1054.23 816.283 1057.7 814.357 1060.4C808.035 1069.25 798.955 1073.93 788.102 1073.93ZM773.996 1064.28C774.936 1065 776.818 1065.97 778.914 1066.5C782.1 1067.29 785.189 1067.7 788.103 1067.7C796.982 1067.7 804.111 1064.02 809.289 1056.77C810.369 1055.26 810.045 1053.34 809.756 1052.33C809.15 1050.22 807.646 1048.29 806.098 1047.65C805.258 1047.3 804.561 1047.04 803.92 1047.04C803.576 1047.04 802.529 1047.04 800.768 1049.01C799.552 1050.37 798.383 1051.78 797.264 1053.23C793.193 1058.4 791.328 1060.15 779.219 1062.65C776.264 1063.25 774.748 1063.87 773.996 1064.28ZM797.959 1049.9C797.215 1049.9 796.496 1049.63 795.932 1049.15C795.368 1048.66 794.996 1047.99 794.883 1047.26C794.805 1046.74 794.752 1046.22 794.727 1045.7C786.789 1045.55 779.131 1042.14 773.316 1036.08C765.965 1028.41 762.619 1017.78 764.139 1006.92C765.789 995.131 765.172 984.723 764.84 979.131C764.748 977.576 764.682 976.453 764.686 975.676C764.691 974.689 764.711 972.074 773.453 967.643C776.562 966.066 782.797 963.316 789.607 962.611C800.891 961.445 808.328 966.471 810.555 976.764C816.564 1004.55 811.031 1016.84 806.99 1025.82C806.238 1027.49 805.527 1029.07 804.959 1030.6L804.457 1031.95C802.322 1037.67 800.477 1042.62 801.043 1046.31C801.105 1046.72 801.087 1047.13 800.99 1047.53C800.892 1047.92 800.717 1048.3 800.475 1048.63C800.233 1048.96 799.928 1049.24 799.578 1049.45C799.228 1049.66 798.84 1049.8 798.436 1049.86L797.959 1049.9ZM770.937 976.539L771.059 978.764C771.402 984.572 772.043 995.381 770.309 1007.79C769.057 1016.74 771.791 1025.48 777.814 1031.76C782.574 1036.73 788.838 1039.47 795.275 1039.47H795.408C796.129 1036.43 797.326 1033.22 798.615 1029.77L799.113 1028.43C799.756 1026.7 800.508 1025.03 801.305 1023.26C805.193 1014.62 810.035 1003.87 804.459 978.082C803.355 972.975 800.678 970.02 796.277 969.045C787.238 967.049 773.768 973.848 770.937 976.539ZM789.746 975.217C789.59 976.318 791.764 979.26 794.6 979.652C797.43 980.049 799.852 977.748 800.006 976.646C800.16 975.545 797.988 974.33 795.152 973.936C792.316 973.541 789.896 974.115 789.746 975.217ZM795.25 980.736L794.455 980.682C792.697 980.438 790.92 979.33 789.703 977.717C789.275 977.15 788.578 976.053 788.717 975.072C788.914 973.635 790.668 972.773 793.404 972.773C794.016 972.773 794.652 972.818 795.293 972.908C796.789 973.115 798.178 973.547 799.203 974.119C800.98 975.111 801.111 976.219 801.031 976.791C800.812 978.379 798.287 980.736 795.25 980.736ZM790.779 975.4C790.867 976.08 792.551 978.322 794.742 978.625L795.252 978.66C797.275 978.66 798.787 977.068 798.965 976.547C798.777 976.191 797.477 975.309 795.01 974.965C794.479 974.89 793.943 974.851 793.406 974.85C791.82 974.85 790.978 975.207 790.779 975.4ZM875.945 972.969C876.1 974.07 873.928 977.012 871.094 977.406C868.262 977.801 865.838 975.502 865.682 974.4C865.533 973.299 867.705 972.082 870.537 971.689C873.369 971.293 875.789 971.869 875.945 972.969ZM870.439 977.969C867.713 977.969 865.359 975.848 865.166 974.471C864.941 972.818 867.662 971.563 870.463 971.174C871.08 971.088 871.691 971.045 872.279 971.045C874.697 971.045 876.299 971.754 876.459 972.898C876.562 973.639 875.994 974.781 875.016 975.813C874.369 976.49 873.012 977.664 871.162 977.92L870.439 977.969ZM872.281 972.084C871.74 972.084 871.182 972.124 870.609 972.203C867.795 972.596 866.115 973.725 866.197 974.33C866.291 974.996 868.088 976.932 870.441 976.932L871.021 976.891C872.559 976.678 873.713 975.674 874.264 975.096C875.129 974.188 875.473 973.332 875.432 973.041C875.377 972.654 874.338 972.084 872.281 972.084ZM880.025 1036.23C879.461 1036.23 878.907 1036.08 878.422 1035.79C877.938 1035.5 877.542 1035.08 877.276 1034.58C877.011 1034.08 876.886 1033.52 876.914 1032.96C876.943 1032.39 877.125 1031.85 877.439 1031.38C884.076 1021.47 882.861 1011.36 881.687 1001.59C881.186 997.422 880.67 993.115 880.803 988.982C880.939 984.73 881.48 981.223 882.002 977.83C882.621 973.811 883.207 970.014 882.965 965.506C882.943 965.097 883.001 964.688 883.137 964.302C883.273 963.917 883.484 963.561 883.757 963.257C884.031 962.952 884.361 962.704 884.73 962.528C885.099 962.351 885.5 962.249 885.908 962.227C886.317 962.205 886.726 962.263 887.112 962.399C887.498 962.535 887.853 962.746 888.157 963.019C888.772 963.571 889.143 964.345 889.187 965.17C889.465 970.322 888.803 974.619 888.162 978.777C887.668 981.986 887.156 985.305 887.033 989.182C886.914 992.842 887.381 996.729 887.875 1000.84C889.125 1011.24 890.541 1023.02 882.619 1034.85C882.333 1035.27 881.947 1035.62 881.495 1035.86C881.043 1036.1 880.538 1036.23 880.025 1036.23Z" fill="white"/>
<path d="M1209 634.266C1221.3 634.266 1231.27 624.297 1231.27 612C1231.27 599.703 1221.3 589.734 1209 589.734C1196.7 589.734 1186.73 599.703 1186.73 612C1186.73 624.297 1196.7 634.266 1209 634.266Z" fill="#61DAFB"/>
<path d="M1293.57 575.281C1289.27 573.719 1284.78 572.156 1280.09 570.789C1281.27 566.102 1282.24 561.414 1283.02 556.922C1287.12 531.141 1282.63 512.977 1270.13 505.945C1266.42 503.797 1262.32 502.82 1257.63 502.82C1243.96 502.82 1226.58 512.977 1209 529.969C1191.42 512.977 1174.04 502.82 1160.37 502.82C1155.68 502.82 1151.58 503.797 1147.87 505.945C1135.37 513.172 1130.88 531.336 1134.98 556.922C1135.76 561.414 1136.73 566.102 1137.91 570.789C1133.22 572.156 1128.73 573.523 1124.43 575.281C1100.02 584.656 1086.73 597.547 1086.73 612C1086.73 626.453 1100.21 639.344 1124.43 648.719C1128.73 650.281 1133.22 651.844 1137.91 653.211C1136.73 657.898 1135.76 662.586 1134.98 667.078C1130.88 692.859 1135.37 711.023 1147.87 718.055C1151.58 720.203 1155.68 721.18 1160.37 721.18C1174.23 721.18 1191.62 711.023 1209 694.031C1226.58 711.023 1243.96 721.18 1257.63 721.18C1262.32 721.18 1266.42 720.203 1270.13 718.055C1282.63 710.828 1287.12 692.664 1283.02 667.078C1282.24 662.586 1281.27 657.898 1280.09 653.211C1284.78 651.844 1289.27 650.477 1293.57 648.719C1317.98 639.344 1331.27 626.453 1331.27 612C1331.27 597.547 1317.98 584.656 1293.57 575.281ZM1264.66 515.711C1272.67 520.398 1275.41 534.852 1272.09 555.359C1271.5 559.461 1270.52 563.758 1269.35 568.25C1259.2 565.906 1248.45 564.344 1237.12 563.367C1230.48 553.992 1223.65 545.594 1216.81 537.977C1231.27 523.719 1245.91 513.953 1257.83 513.953C1260.37 513.953 1262.71 514.539 1264.66 515.711ZM1242.79 631.531C1239.27 637.781 1235.17 644.031 1230.87 650.281C1223.65 650.867 1216.42 651.063 1209 651.063C1201.38 651.063 1194.16 650.867 1187.12 650.281C1182.83 644.031 1178.92 637.781 1175.41 631.531C1171.7 625.086 1168.18 618.445 1165.05 612C1168.18 605.555 1171.7 598.914 1175.41 592.469C1178.92 586.219 1183.02 579.969 1187.32 573.719C1194.55 573.133 1201.77 572.938 1209.2 572.938C1216.81 572.938 1224.04 573.133 1231.07 573.719C1235.37 579.969 1239.27 586.219 1242.79 592.469C1246.5 598.914 1250.02 605.555 1253.14 612C1249.82 618.445 1246.5 624.891 1242.79 631.531ZM1259 625.086C1261.93 631.922 1264.27 638.563 1266.42 645.203C1259.78 646.766 1252.75 647.938 1245.33 648.914C1247.67 645.203 1250.21 641.297 1252.36 637.195C1254.7 633.094 1256.85 628.992 1259 625.086ZM1209 678.016C1204.31 672.938 1199.82 667.469 1195.52 661.805C1200.02 662 1204.51 662.195 1209 662.195C1213.49 662.195 1217.98 662 1222.48 661.805C1218.18 667.469 1213.69 672.938 1209 678.016ZM1172.67 648.719C1165.25 647.742 1158.22 646.57 1151.58 645.008C1153.73 638.563 1156.07 631.727 1159 624.891C1161.15 628.797 1163.3 632.898 1165.64 636.805C1167.98 641.102 1170.33 644.813 1172.67 648.719ZM1159 598.914C1156.07 592.078 1153.73 585.438 1151.58 578.797C1158.22 577.234 1165.25 576.062 1172.67 575.086C1170.33 578.797 1167.79 582.703 1165.64 586.805C1163.3 590.906 1161.15 595.008 1159 598.914ZM1209 545.984C1213.69 551.063 1218.18 556.531 1222.48 562.195C1217.98 562 1213.49 561.805 1209 561.805C1204.51 561.805 1200.02 562 1195.52 562.195C1199.82 556.531 1204.31 551.063 1209 545.984ZM1252.36 587L1245.33 575.281C1252.75 576.258 1259.78 577.43 1266.42 578.992C1264.27 585.437 1261.93 592.273 1259 599.109C1256.85 595.008 1254.7 590.906 1252.36 587ZM1145.91 555.359C1142.59 534.852 1145.33 520.398 1153.34 515.711C1155.29 514.539 1157.63 513.953 1160.17 513.953C1171.89 513.953 1186.54 523.523 1201.19 537.977C1194.35 545.398 1187.52 553.992 1180.87 563.367C1169.55 564.344 1158.8 566.102 1148.65 568.25C1147.48 563.758 1146.7 559.461 1145.91 555.359ZM1097.67 612C1097.67 602.82 1108.8 593.055 1128.34 585.828C1132.24 584.266 1136.54 582.898 1140.84 581.727C1143.96 591.492 1147.87 601.844 1152.55 612.195C1147.87 622.547 1143.77 632.703 1140.84 642.469C1113.88 634.656 1097.67 622.938 1097.67 612ZM1153.34 708.289C1145.33 703.602 1142.59 689.148 1145.91 668.641C1146.5 664.539 1147.48 660.242 1148.65 655.75C1158.8 658.094 1169.55 659.656 1180.87 660.633C1187.52 670.008 1194.35 678.406 1201.19 686.023C1186.73 700.281 1172.09 710.047 1160.17 710.047C1157.63 710.047 1155.29 709.461 1153.34 708.289ZM1272.09 668.641C1275.41 689.148 1272.67 703.602 1264.66 708.289C1262.71 709.461 1260.37 710.047 1257.83 710.047C1246.11 710.047 1231.46 700.477 1216.81 686.023C1223.65 678.602 1230.48 670.008 1237.12 660.633C1248.45 659.656 1259.2 657.898 1269.35 655.75C1270.52 660.242 1271.3 664.539 1272.09 668.641ZM1289.66 638.172C1285.76 639.734 1281.46 641.102 1277.16 642.273C1274.04 632.508 1270.13 622.156 1265.45 611.805C1270.13 601.453 1274.23 591.297 1277.16 581.531C1304.12 589.344 1320.33 601.063 1320.33 612C1320.33 621.18 1309 630.945 1289.66 638.172Z" fill="#61DAFB"/>
<path d="M777.406 309H644.594C612.233 309 586 335.233 586 367.594V500.406C586 532.767 612.233 559 644.594 559H777.406C809.767 559 836 532.767 836 500.406V367.594C836 335.233 809.767 309 777.406 309Z" fill="#F4F2ED"/>
<path d="M669.935 504.24L693.89 517.541H730.117L764.006 492.097L779.197 452.195L744.139 409.981L734.207 386.272L685.711 388.007L686.295 401.308L676.946 418.655L662.339 446.991L659.418 470.7L669.935 504.24Z" fill="#ECEFF1"/>
<path d="M768.68 420.969C759.331 407.668 751.735 399.572 747.645 382.803C743.555 366.033 748.814 370.659 745.308 356.201C743.555 348.685 740.634 343.48 737.713 339.432C734.207 335.384 730.117 333.07 727.779 332.492C722.521 329.602 710.251 324.975 695.059 333.07C679.283 341.166 681.036 358.515 683.958 393.79C683.958 396.103 683.373 398.995 682.205 401.308C679.868 406.513 675.777 411.138 672.272 415.187C668.181 420.969 664.092 426.752 661.171 433.112C654.159 446.413 647.731 463.183 649.484 469.544C652.406 468.966 689.217 524.481 689.217 525.637C691.554 525.059 701.486 525.059 710.251 525.059C722.521 524.481 729.532 523.902 739.466 526.215C739.466 524.481 738.881 522.745 738.881 521.011C738.881 517.541 739.466 514.65 740.05 510.602C740.634 507.71 741.219 504.819 741.803 501.35C735.96 506.554 725.442 512.337 715.51 514.071C706.745 515.806 692.138 512.915 685.126 504.24C685.711 504.24 686.879 504.24 687.464 503.662C689.217 503.084 690.97 502.506 691.554 501.35C693.306 498.458 692.138 495.567 690.97 493.832C689.801 492.097 681.036 485.735 676.946 482.267C672.856 478.797 670.519 477.062 668.181 474.749L663.508 470.122C662.339 468.966 661.755 467.81 661.171 467.231C660.002 464.34 659.418 460.87 660.002 456.244C660.586 449.883 662.923 444.678 665.845 438.896C667.014 436.582 669.934 431.956 669.934 431.956C669.934 431.956 660.002 456.244 665.261 463.762C665.261 463.762 665.845 456.244 668.181 448.727C669.934 443.522 672.856 436.004 676.362 431.956C679.868 427.908 688.632 412.873 689.217 403.62C689.217 399.572 689.801 395.525 689.801 392.634C687.464 390.319 728.364 384.538 730.701 390.899C731.285 393.212 739.466 414.029 744.139 425.017C746.476 430.222 749.398 434.848 751.151 440.63C752.904 446.991 754.072 455.665 754.072 464.34C754.072 466.074 754.072 468.966 753.488 471.858C754.657 471.858 777.444 447.569 750.567 427.33C750.567 427.33 766.927 434.848 767.512 449.883C768.096 462.026 762.837 471.858 761.669 473.592C762.253 473.592 773.938 478.797 774.522 478.797C776.86 478.797 781.534 477.062 781.534 477.062C782.119 475.327 783.871 470.7 783.871 468.966C787.962 455.665 778.028 434.27 768.68 420.969Z" fill="#263238"/>
<path d="M694.475 382.803C698.671 382.803 702.071 377.624 702.071 371.237C702.071 364.85 698.671 359.672 694.475 359.672C690.28 359.672 686.88 364.85 686.88 371.236C686.88 377.623 690.281 382.803 694.475 382.803ZM720.768 383.959C726.255 383.959 730.702 378.004 730.702 370.658C730.702 363.313 726.255 357.359 720.768 357.359C715.283 357.359 710.836 363.314 710.836 370.66C710.836 378.006 715.283 383.961 720.768 383.961" fill="#ECEFF1"/>
<path d="M698.718 372.028C698.233 368.227 696.022 365.371 693.78 365.651C691.539 365.932 690.116 369.241 690.603 373.044C691.088 376.846 693.298 379.701 695.539 379.421C697.78 379.14 699.203 375.83 698.718 372.028ZM720.184 380.489C723.41 380.489 726.027 377.124 726.027 372.972C726.027 368.82 723.41 365.454 720.184 365.454C716.956 365.454 714.34 368.82 714.34 372.972C714.34 377.123 716.956 380.489 720.184 380.489Z" fill="#212121"/>
<path d="M797.894 500.192C795.558 499.036 791.467 497.301 787.961 492.097C786.209 489.205 786.793 481.109 783.871 477.64C782.118 475.327 779.781 476.483 779.197 476.483C773.938 477.64 761.668 485.735 753.488 476.483C752.319 475.327 750.566 473.592 747.645 473.592C744.724 473.592 743.556 474.748 742.387 477.061C741.218 479.375 741.218 481.109 741.218 486.893C741.218 491.519 741.218 496.723 740.634 500.77C739.465 510.602 737.713 516.385 737.713 522.167C737.713 528.528 739.465 532.576 741.803 534.311C743.556 536.046 746.477 537.202 752.904 537.202C759.331 537.202 763.421 534.89 767.512 530.841C770.433 527.95 772.769 526.793 780.95 521.011C787.377 516.963 797.31 511.758 799.062 510.023C800.231 508.867 801.984 508.288 801.984 504.818C801.984 501.928 799.647 500.77 797.894 500.192ZM680.452 501.928C674.609 492.675 674.024 490.94 669.935 485.157C666.429 479.375 658.833 468.388 654.159 468.388C650.653 468.388 648.9 470.122 646.563 472.436C644.226 474.748 641.889 479.953 637.799 482.845C634.293 485.735 624.36 485.157 622.023 488.627C619.686 492.097 624.36 497.302 624.36 505.976C624.36 509.445 621.438 511.758 620.854 514.071C620.27 516.963 619.685 518.697 620.854 521.011C623.191 524.48 626.113 525.637 645.978 529.685C656.496 531.998 666.429 537.78 672.856 538.359C679.283 538.937 690.385 538.359 690.385 522.745C690.97 513.493 685.711 511.18 680.452 501.928ZM691.554 397.26C688.048 394.946 685.126 392.633 685.126 389.164C685.126 385.694 687.464 384.537 690.97 381.646C691.554 381.067 697.98 375.285 704.408 375.285C710.836 375.285 718.431 379.333 721.352 380.49C726.611 381.645 731.869 382.803 731.285 386.851C730.701 392.633 730.117 393.79 724.273 396.682C720.184 397.838 712.588 404.199 707.329 404.199C704.992 404.199 701.486 404.199 699.149 403.62C697.396 403.042 694.475 400.15 691.554 397.26Z" fill="#FFC107"/>
<path d="M690.385 392.633C691.554 393.79 693.307 394.947 695.06 395.524C696.228 396.103 697.981 396.682 697.981 396.682H703.239C706.161 396.682 710.251 395.524 714.341 393.212C718.431 391.477 719.016 390.32 721.937 389.164C724.858 387.429 727.779 385.694 726.611 385.116C725.442 384.537 724.274 385.116 720.184 387.429C716.678 389.742 713.757 390.898 710.251 392.634C708.498 393.212 706.161 394.368 704.408 394.368H699.149C697.397 394.368 696.228 393.79 694.475 393.212C693.307 392.633 692.722 392.055 692.138 392.055C690.97 391.477 688.632 389.164 687.464 388.585C687.464 388.585 686.295 388.585 686.879 389.164L690.385 392.633ZM707.914 379.911C708.498 381.067 709.667 381.067 710.251 381.646C710.835 382.224 711.42 382.225 711.42 382.225C712.004 381.646 711.42 380.489 710.835 380.489C710.835 379.333 707.914 379.333 707.914 379.911ZM698.566 381.067C698.566 381.646 699.733 382.225 699.733 381.646C700.318 381.067 700.902 380.489 701.486 380.489C702.655 379.911 702.07 379.333 700.318 379.333C699.149 379.911 699.149 380.489 698.566 381.067Z" fill="#634703"/>
<path d="M755.241 483.423V485.157C756.41 487.471 759.331 488.049 761.668 488.049C765.174 488.049 768.68 485.735 770.433 483.423C770.433 482.845 771.017 482.266 771.602 481.688C772.77 479.953 773.355 478.797 773.939 478.218C773.939 478.218 773.355 477.64 773.355 477.062C772.77 475.905 771.017 474.748 768.68 474.17C766.927 473.592 764.006 473.014 762.837 473.014C757.578 472.436 754.657 474.17 752.904 475.905C752.904 475.905 753.488 475.905 753.488 476.484C754.657 477.64 755.241 478.797 755.241 480.531C755.825 481.688 755.241 482.266 755.241 483.423Z" fill="#455A64"/>
<path fill-rule="evenodd" clip-rule="evenodd" d="M1248.06 1333.26V1317.44C1248.06 1315.29 1249.43 1313.73 1251.58 1313.73H1252.16C1254.31 1313.73 1255.68 1315.48 1255.68 1317.44V1350.64C1255.68 1358.65 1251.77 1365.09 1244.74 1369.2C1241.42 1371.15 1237.91 1372.13 1234.2 1372.13H1232.63C1224.63 1372.13 1218.18 1368.22 1214.08 1361.19C1212.12 1357.87 1211.15 1354.35 1211.15 1350.64V1349.08C1211.15 1341.07 1215.05 1334.63 1222.09 1330.52C1225.41 1328.57 1228.92 1327.59 1232.63 1327.59H1234.2C1239.47 1327.79 1244.16 1329.74 1248.06 1333.26ZM1218.57 1349.86C1218.57 1355.72 1221.5 1360.02 1226.58 1362.95C1228.73 1364.12 1230.87 1364.7 1233.22 1364.7C1238.88 1364.7 1243.18 1361.97 1246.11 1357.09C1247.48 1354.74 1248.06 1352.4 1248.06 1349.66C1248.06 1344.59 1245.72 1340.68 1241.62 1337.75C1239.08 1335.99 1236.34 1335.02 1233.41 1335.02C1227.16 1335.02 1222.67 1338.14 1219.94 1343.8C1218.96 1345.76 1218.57 1347.91 1218.57 1349.86ZM1281.46 1327.79H1282.44C1291.03 1327.79 1297.67 1331.89 1301.77 1339.51C1303.53 1342.44 1304.31 1345.76 1304.31 1349.27V1350.84C1304.31 1358.84 1300.41 1365.29 1293.38 1369.39C1290.05 1371.34 1286.54 1372.32 1282.83 1372.32H1281.27C1273.26 1372.32 1266.81 1368.41 1262.71 1361.38C1260.76 1358.06 1259.78 1354.55 1259.78 1350.84V1349.27C1259.78 1341.27 1263.88 1334.82 1270.72 1330.72C1274.04 1328.57 1277.75 1327.79 1281.46 1327.79ZM1267.4 1349.86C1267.4 1355.52 1270.13 1359.63 1275.02 1362.55C1277.36 1363.92 1279.7 1364.51 1282.44 1364.51C1288.1 1364.51 1292.2 1361.58 1295.13 1356.89C1296.5 1354.55 1297.09 1352.2 1297.09 1349.47C1297.09 1344.2 1294.55 1340.09 1290.25 1337.16C1287.91 1335.6 1285.17 1334.82 1282.44 1334.82C1276.19 1334.82 1271.7 1337.95 1268.96 1343.61C1267.79 1345.76 1267.4 1347.91 1267.4 1349.86ZM1335.37 1335.8C1334.2 1335.21 1332.05 1335.02 1330.88 1335.02C1324.63 1334.82 1320.13 1338.34 1317.4 1343.8C1316.42 1345.76 1316.03 1347.71 1316.03 1349.86C1316.03 1356.3 1319.35 1360.8 1325.02 1363.53C1327.16 1364.51 1329.7 1364.7 1332.05 1364.7C1334 1364.7 1336.93 1363.53 1338.69 1362.55L1339.08 1362.36H1340.64C1342.4 1362.75 1343.57 1363.73 1343.57 1365.68V1366.46C1343.57 1370.95 1335.17 1372.13 1332.05 1372.32C1320.91 1373.1 1312.52 1367.05 1309.39 1356.3C1308.8 1354.55 1308.61 1352.59 1308.61 1350.64V1349.08C1308.61 1341.07 1312.71 1334.63 1319.55 1330.52C1322.87 1328.57 1326.38 1327.59 1330.09 1327.59H1331.66C1335.56 1327.59 1339.27 1328.77 1342.59 1330.91L1342.79 1331.11L1342.98 1331.3C1343.38 1331.89 1343.57 1332.48 1343.57 1333.26V1334.04C1343.57 1335.99 1342.2 1336.97 1340.45 1337.36H1339.86C1338.88 1337.36 1336.34 1336.19 1335.37 1335.8ZM1359.59 1340.88C1362.52 1337.95 1365.45 1335.02 1368.38 1332.28C1369.16 1331.5 1372.28 1328.18 1373.45 1328.18H1375.02C1376.77 1328.57 1377.95 1329.55 1377.95 1331.5V1332.28C1377.95 1333.45 1376.58 1335.02 1375.6 1335.8L1370.33 1341.07L1361.34 1350.25C1365.25 1354.16 1369.16 1358.06 1372.87 1361.97L1375.99 1365.29C1376.38 1365.68 1376.97 1366.07 1377.16 1366.66C1377.55 1367.24 1377.75 1367.83 1377.75 1368.41V1369.39C1377.36 1371.15 1376.19 1372.52 1374.43 1372.52H1373.84C1372.67 1372.52 1371.3 1371.15 1370.33 1370.37C1368.57 1368.8 1366.81 1367.05 1365.25 1365.29L1359.59 1359.63V1368.61C1359.59 1370.76 1358.22 1372.32 1356.07 1372.32H1355.48C1353.34 1372.32 1351.97 1370.56 1351.97 1368.61V1317.63C1351.97 1315.48 1353.34 1313.92 1355.48 1313.92H1356.07C1358.22 1313.92 1359.59 1315.48 1359.59 1317.63V1340.88ZM1452.55 1327.98H1453.34C1455.48 1327.98 1457.05 1329.55 1457.05 1331.7C1457.05 1334.82 1454.12 1335.6 1451.58 1335.6C1448.26 1335.6 1444.94 1337.55 1442.79 1339.9C1439.86 1342.83 1438.69 1346.34 1438.69 1350.45V1368.41C1438.69 1370.56 1437.32 1372.13 1435.17 1372.13H1434.59C1432.44 1372.13 1431.07 1370.37 1431.07 1368.41V1349.27C1431.07 1341.85 1434.59 1335.99 1440.64 1331.7C1444.16 1329.35 1448.26 1327.98 1452.55 1327.98ZM1399.62 1363.73C1402.36 1364.7 1405.48 1364.51 1408.22 1364.12C1409.59 1363.53 1413.3 1361.97 1414.66 1362.16H1415.05C1415.84 1362.55 1416.62 1363.14 1417.01 1363.92C1417.98 1365.88 1417.59 1367.83 1415.64 1369L1415.05 1369.39C1408.02 1373.49 1400.41 1372.91 1393.38 1369C1390.05 1367.24 1387.52 1364.51 1385.56 1361.19L1385.17 1360.41C1380.68 1352.59 1381.27 1344.2 1386.34 1336.77C1388.1 1334.23 1390.45 1332.28 1393.18 1330.72L1394.16 1330.13C1400.8 1326.23 1408.02 1326.62 1414.86 1329.94C1418.57 1331.7 1421.5 1334.43 1423.65 1337.95L1424.04 1338.53C1425.6 1341.07 1423.65 1343.41 1421.7 1344.98C1419.35 1346.73 1417.01 1348.88 1414.86 1350.84C1409.59 1355.13 1404.51 1359.43 1399.62 1363.73ZM1393.18 1359.23L1409.78 1344.98C1411.73 1343.41 1413.69 1341.66 1415.64 1339.9C1414.08 1337.95 1411.54 1336.58 1409.59 1335.8C1405.29 1334.23 1400.99 1334.63 1397.09 1336.97C1392.01 1339.9 1389.66 1344.78 1389.86 1350.64C1389.86 1352.98 1390.64 1355.13 1391.81 1357.28C1392.2 1358.06 1392.59 1358.65 1393.18 1359.23ZM1352.95 1209.82H1375.02V1232.28H1386.15C1391.23 1232.28 1396.5 1231.3 1401.38 1229.74C1403.73 1228.96 1406.46 1227.79 1408.8 1226.42C1405.68 1222.32 1404.12 1217.24 1403.73 1212.16C1403.14 1205.33 1404.51 1196.34 1409.2 1191.07L1411.54 1188.34L1414.27 1190.48C1421.3 1196.15 1426.97 1203.77 1428.14 1212.75C1436.54 1210.21 1446.3 1210.8 1453.73 1215.09L1456.66 1216.85L1455.09 1219.98C1448.84 1232.09 1435.76 1235.99 1423.06 1235.21C1403.92 1282.67 1362.52 1305.13 1312.13 1305.13C1286.15 1305.13 1262.32 1295.37 1248.65 1272.32L1248.45 1271.93L1246.5 1267.83C1241.81 1257.67 1240.45 1246.54 1241.42 1235.41L1241.81 1232.09H1260.56V1209.82H1282.63V1187.75H1326.58V1165.68H1352.95V1209.82Z" fill="#3A4D54"/>
<path d="M1424.23 1218.02C1425.8 1206.5 1417.2 1197.52 1411.73 1193.22C1405.68 1200.25 1404.7 1219 1414.27 1226.81C1408.8 1231.5 1397.67 1235.99 1385.95 1235.99H1244.94C1243.77 1248.1 1245.91 1259.23 1250.8 1268.8L1252.36 1271.73C1253.34 1273.49 1254.51 1275.05 1255.68 1276.81C1261.54 1277.2 1266.81 1277.4 1271.7 1277.2C1281.27 1277.01 1289.08 1275.84 1295.13 1273.88C1296.11 1273.49 1296.89 1274.08 1297.28 1274.86C1297.67 1275.84 1297.09 1276.62 1296.3 1277.01C1295.52 1277.2 1294.74 1277.59 1293.77 1277.79C1289.08 1279.16 1284 1279.94 1277.55 1280.33H1276.38C1273.84 1280.52 1271.11 1280.52 1268.18 1280.52C1265.05 1280.52 1262.13 1280.52 1258.61 1280.33C1270.33 1293.61 1288.69 1301.42 1311.73 1301.42C1360.56 1301.42 1401.97 1279.74 1420.13 1231.3C1433.22 1232.67 1445.72 1229.35 1451.38 1218.22C1442.59 1213.14 1430.88 1214.7 1424.23 1218.02Z" fill="#00AADA"/>
<path d="M1424.23 1218.02C1425.8 1206.5 1417.2 1197.52 1411.73 1193.22C1405.68 1200.25 1404.7 1219 1414.27 1226.81C1408.8 1231.5 1397.67 1235.99 1385.95 1235.99H1253.14C1252.55 1254.55 1259.39 1268.61 1271.7 1277.01C1281.27 1276.81 1289.08 1275.64 1295.13 1273.69C1296.11 1273.3 1296.89 1273.88 1297.28 1274.66C1297.67 1275.64 1297.09 1276.42 1296.3 1276.81C1295.52 1277.01 1294.74 1277.4 1293.77 1277.59C1289.08 1278.96 1283.61 1279.94 1277.16 1280.33L1276.97 1280.13C1293.57 1288.73 1317.59 1288.53 1345.33 1277.98C1376.19 1266.07 1405.09 1243.41 1425.21 1217.63C1424.82 1217.83 1424.62 1218.02 1424.23 1218.02Z" fill="#28B8EB"/>
<path d="M1245.13 1250.64C1245.91 1257.09 1247.87 1263.14 1250.8 1268.8L1252.36 1271.73C1253.34 1273.49 1254.51 1275.05 1255.68 1276.81C1261.54 1277.2 1266.81 1277.4 1271.7 1277.2C1281.27 1277.01 1289.08 1275.84 1295.13 1273.88C1296.11 1273.49 1296.89 1274.08 1297.28 1274.86C1297.67 1275.84 1297.09 1276.62 1296.3 1277.01C1295.52 1277.2 1294.74 1277.59 1293.77 1277.79C1289.08 1279.16 1283.61 1280.13 1277.16 1280.52H1276.38C1273.84 1280.72 1271.11 1280.72 1268.37 1280.72C1265.25 1280.72 1262.13 1280.72 1258.8 1280.52C1270.52 1293.8 1289.08 1301.62 1312.12 1301.62C1353.92 1301.62 1390.25 1285.8 1411.34 1250.84H1245.13V1250.64Z" fill="#028BB8"/>
<path d="M1254.51 1250.64C1257.05 1261.97 1262.91 1270.95 1271.7 1277.01C1281.27 1276.81 1289.08 1275.64 1295.13 1273.69C1296.11 1273.3 1296.89 1273.88 1297.28 1274.66C1297.67 1275.64 1297.09 1276.42 1296.3 1276.81C1295.52 1277.01 1294.74 1277.4 1293.77 1277.59C1289.08 1278.96 1283.61 1279.94 1276.97 1280.33C1293.57 1288.92 1317.59 1288.73 1345.13 1278.18C1361.73 1271.73 1377.95 1262.16 1392.4 1250.64H1254.51Z" fill="#019BC6"/>
<path fill-rule="evenodd" clip-rule="evenodd" d="M1264.08 1213.34H1283.22V1232.48H1264.08V1213.34ZM1265.64 1215.09H1267.2V1230.91H1265.64V1215.09ZM1268.57 1215.09H1270.13V1230.91H1268.57V1215.09ZM1271.5 1215.09H1273.06V1230.91H1271.5V1215.09ZM1274.23 1215.09H1275.8V1230.91H1274.23V1215.09ZM1277.16 1215.09H1278.73V1230.91H1277.16V1215.09ZM1280.09 1215.09H1281.66V1230.91H1280.09V1215.09ZM1286.15 1191.46H1305.29V1210.41H1286.15V1191.46ZM1287.71 1193.02H1289.27V1208.84H1287.71V1193.02ZM1290.64 1193.02H1292.2V1208.84H1290.64V1193.02ZM1293.38 1193.02H1294.94V1208.84H1293.38V1193.02ZM1296.3 1193.02H1297.87V1208.84H1296.3V1193.02ZM1299.23 1193.02H1300.8V1208.84H1299.23V1193.02ZM1302.16 1193.02H1303.73V1208.84H1302.16V1193.02Z" fill="#00ACD3"/>
<path fill-rule="evenodd" clip-rule="evenodd" d="M1286.15 1213.34H1305.29V1232.48H1286.15V1213.34ZM1287.71 1215.09H1289.27V1230.91H1287.71V1215.09ZM1290.64 1215.09H1292.2V1230.91H1290.64V1215.09ZM1293.38 1215.09H1294.94V1230.91H1293.38V1215.09ZM1296.3 1215.09H1297.87V1230.91H1296.3V1215.09ZM1299.23 1215.09H1300.8V1230.91H1299.23V1215.09ZM1302.16 1215.09H1303.73V1230.91H1302.16V1215.09Z" fill="#23C2EE"/>
<path fill-rule="evenodd" clip-rule="evenodd" d="M1308.22 1213.34H1327.36V1232.48H1308.22V1213.34ZM1309.78 1215.09H1311.34V1230.91H1309.78V1215.09ZM1312.52 1215.09H1314.08V1230.91H1312.52V1215.09ZM1315.45 1215.09H1317.01V1230.91H1315.45V1215.09ZM1318.38 1215.09H1319.94V1230.91H1318.38V1215.09ZM1321.3 1215.09H1322.87V1230.91H1321.3V1215.09ZM1324.04 1215.09H1325.6V1230.91H1324.04V1215.09Z" fill="#00ACD3"/>
<path fill-rule="evenodd" clip-rule="evenodd" d="M1308.22 1191.46H1327.36V1210.41H1308.22V1191.46ZM1309.78 1193.02H1311.34V1208.84H1309.78V1193.02ZM1312.52 1193.02H1314.08V1208.84H1312.52V1193.02ZM1315.45 1193.02H1317.01V1208.84H1315.45V1193.02ZM1318.38 1193.02H1319.94V1208.84H1318.38V1193.02ZM1321.3 1193.02H1322.87V1208.84H1321.3V1193.02ZM1324.04 1193.02H1325.6V1208.84H1324.04V1193.02ZM1330.09 1213.34H1349.23V1232.48H1330.09V1213.34ZM1331.85 1215.09H1333.41V1230.91H1331.85V1215.09ZM1334.59 1215.09H1336.15V1230.91H1334.59V1215.09ZM1337.52 1215.09H1339.08V1230.91H1337.52V1215.09ZM1340.45 1215.09H1342.01V1230.91H1340.45V1215.09ZM1343.18 1215.09H1344.74V1230.91H1343.18V1215.09ZM1346.11 1215.09H1347.67V1230.91H1346.11V1215.09Z" fill="#23C2EE"/>
<path fill-rule="evenodd" clip-rule="evenodd" d="M1330.09 1191.46H1349.23V1210.41H1330.09V1191.46ZM1331.85 1193.02H1333.41V1208.84H1331.85V1193.02ZM1334.59 1193.02H1336.15V1208.84H1334.59V1193.02ZM1337.52 1193.02H1339.08V1208.84H1337.52V1193.02ZM1340.45 1193.02H1342.01V1208.84H1340.45V1193.02ZM1343.18 1193.02H1344.74V1208.84H1343.18V1193.02ZM1346.11 1193.02H1347.67V1208.84H1346.11V1193.02Z" fill="#00ACD3"/>
<path fill-rule="evenodd" clip-rule="evenodd" d="M1330.09 1169.39H1349.23V1188.53H1330.09V1169.39ZM1331.85 1170.95H1333.41V1186.97H1331.85V1170.95ZM1334.59 1170.95H1336.15V1186.97H1334.59V1170.95ZM1337.52 1170.95H1339.08V1186.97H1337.52V1170.95ZM1340.45 1170.95H1342.01V1186.97H1340.45V1170.95ZM1343.18 1170.95H1344.74V1186.97H1343.18V1170.95ZM1346.11 1170.95H1347.67V1186.97H1346.11V1170.95Z" fill="#23C2EE"/>
<path fill-rule="evenodd" clip-rule="evenodd" d="M1352.16 1213.34H1371.3V1232.48H1352.16V1213.34ZM1353.73 1215.09H1355.29V1230.91H1353.73V1215.09ZM1356.66 1215.09H1358.22V1230.91H1356.66V1215.09ZM1359.59 1215.09H1361.15V1230.91H1359.59V1215.09ZM1362.32 1215.09H1363.88V1230.91H1362.32V1215.09ZM1365.25 1215.09H1366.81V1230.91H1365.25V1215.09ZM1368.18 1215.09H1369.74V1230.91H1368.18V1215.09Z" fill="#00ACD3"/>
<path fill-rule="evenodd" clip-rule="evenodd" d="M1303.92 1263.53C1306.85 1263.53 1309.2 1265.88 1309.2 1268.8C1309.2 1271.73 1306.85 1274.08 1303.92 1274.08C1300.99 1274.08 1298.65 1271.73 1298.65 1268.8C1298.84 1265.88 1301.19 1263.53 1303.92 1263.53Z" fill="#D4EEF1"/>
<path fill-rule="evenodd" clip-rule="evenodd" d="M1303.92 1264.9C1304.31 1264.9 1304.9 1264.9 1305.29 1265.09C1304.9 1265.29 1304.51 1265.87 1304.51 1266.46C1304.51 1267.24 1305.29 1268.02 1306.07 1268.02C1306.66 1268.02 1307.24 1267.63 1307.44 1267.24C1307.63 1267.63 1307.63 1268.22 1307.63 1268.61C1307.63 1270.76 1305.87 1272.32 1303.92 1272.32C1301.77 1272.32 1300.21 1270.56 1300.21 1268.61C1300.21 1266.66 1301.97 1264.9 1303.92 1264.9ZM1210.95 1252.59H1455.68C1450.41 1251.23 1438.88 1249.47 1440.64 1242.44C1430.87 1253.57 1407.63 1250.25 1401.58 1244.78C1394.94 1254.35 1356.66 1250.64 1354.12 1243.22C1345.91 1252.98 1320.33 1252.98 1312.12 1243.22C1309.39 1250.64 1271.11 1254.35 1264.66 1244.78C1258.8 1250.25 1235.37 1253.57 1225.6 1242.44C1227.75 1249.27 1216.23 1251.23 1210.95 1252.59Z" fill="#3A4D54"/>
<path d="M1317.98 1301.42C1304.9 1295.17 1297.87 1286.77 1293.77 1277.59C1288.88 1278.96 1283.02 1279.94 1276.38 1280.33C1273.84 1280.52 1271.11 1280.52 1268.37 1280.52C1265.05 1280.52 1261.73 1280.52 1258.22 1280.33C1270.13 1292.24 1284.98 1301.42 1312.12 1301.62C1314.08 1301.42 1316.03 1301.42 1317.98 1301.42Z" fill="#BFDBE0"/>
<path d="M1298.65 1285.99C1296.89 1283.45 1295.13 1280.52 1293.77 1277.59C1288.88 1278.96 1283.02 1279.94 1276.38 1280.33C1281.07 1282.87 1287.71 1285.21 1298.65 1285.99Z" fill="#D4EEF1"/>
<path d="M445.406 1269H312.594C280.233 1269 254 1295.23 254 1327.59V1460.41C254 1492.77 280.233 1519 312.594 1519H445.406C477.767 1519 504 1492.77 504 1460.41V1327.59C504 1295.23 477.767 1269 445.406 1269Z" fill="#0073AA"/>
<path d="M295.225 1393.99C295.225 1427.15 314.495 1455.81 342.438 1469.39L302.478 1359.9C297.688 1370.63 295.217 1382.25 295.225 1393.99ZM435.551 1389.77C435.551 1379.41 431.832 1372.24 428.643 1366.66C424.396 1359.76 420.415 1353.92 420.415 1347.02C420.415 1339.32 426.256 1332.15 434.482 1332.15C434.854 1332.15 435.206 1332.2 435.568 1332.22C420.664 1318.56 400.808 1310.22 378.997 1310.22C349.731 1310.22 323.982 1325.24 309.004 1347.98C310.969 1348.04 312.821 1348.08 314.395 1348.08C323.157 1348.08 336.721 1347.02 336.721 1347.02C341.236 1346.75 341.77 1353.39 337.258 1353.92C337.258 1353.92 332.72 1354.46 327.67 1354.72L358.176 1445.46L376.509 1390.48L363.457 1354.72C358.946 1354.45 354.673 1353.92 354.673 1353.92C350.158 1353.65 350.688 1346.75 355.202 1347.02C355.202 1347.02 369.036 1348.08 377.268 1348.08C386.029 1348.08 399.594 1347.02 399.594 1347.02C404.113 1346.75 404.644 1353.38 400.131 1353.92C400.131 1353.92 395.583 1354.45 390.543 1354.72L420.817 1444.77L429.173 1416.85C432.795 1405.26 435.551 1396.94 435.551 1389.77Z" fill="white"/>
<path d="M380.468 1401.32L355.333 1474.36C363.018 1476.62 370.987 1477.77 378.998 1477.77C388.473 1477.78 397.879 1476.17 406.816 1473.02C406.584 1472.66 406.385 1472.27 406.221 1471.87L380.468 1401.32ZM452.505 1353.8C452.885 1356.66 453.074 1359.54 453.069 1362.42C453.069 1370.92 451.481 1380.47 446.699 1392.42L421.11 1466.41C446.016 1451.88 462.768 1424.9 462.768 1394C462.769 1379.43 459.049 1365.73 452.505 1353.8Z" fill="white"/>
<path d="M378.998 1296.34C325.152 1296.34 281.344 1340.15 281.344 1393.99C281.344 1447.85 325.152 1491.65 378.998 1491.65C432.841 1491.65 476.656 1447.85 476.656 1393.99C476.654 1340.15 432.841 1296.34 378.998 1296.34ZM378.998 1487.17C327.621 1487.17 285.821 1445.37 285.821 1393.99C285.821 1342.62 327.62 1300.82 378.998 1300.82C430.372 1300.82 472.169 1342.62 472.169 1393.99C472.169 1445.37 430.372 1487.17 378.998 1487.17Z" fill="white"/>
<path d="M711 1551H961V1801H711V1551Z" fill="#F7DF1E"/>
<path d="M776.734 1759.92L795.865 1748.34C799.557 1754.88 802.914 1760.42 810.968 1760.42C818.687 1760.42 823.556 1757.4 823.556 1745.66V1665.77H847.049V1745.99C847.049 1770.32 832.785 1781.4 811.975 1781.4C793.181 1781.4 782.271 1771.66 776.733 1759.92M859.81 1757.4L878.938 1746.33C883.975 1754.55 890.52 1760.59 902.098 1760.59C911.833 1760.59 918.04 1755.72 918.04 1749.01C918.04 1740.96 911.663 1738.1 900.923 1733.4L895.051 1730.88C878.101 1723.67 866.857 1714.61 866.857 1695.48C866.857 1677.86 880.282 1664.43 901.26 1664.43C916.195 1664.43 926.936 1669.63 934.654 1683.23L916.361 1694.97C912.333 1687.76 907.972 1684.91 901.259 1684.91C894.378 1684.91 890.015 1689.27 890.015 1694.97C890.015 1702.02 894.378 1704.88 904.446 1709.24L910.319 1711.76C930.29 1720.32 941.533 1729.04 941.533 1748.67C941.533 1769.82 924.92 1781.4 902.601 1781.4C880.785 1781.4 866.688 1771 859.809 1757.4" fill="black"/>
<path d="M1595.41 1580H1462.59C1430.23 1580 1404 1606.23 1404 1638.59V1771.41C1404 1803.77 1430.23 1830 1462.59 1830H1595.41C1627.77 1830 1654 1803.77 1654 1771.41V1638.59C1654 1606.23 1627.77 1580 1595.41 1580Z" fill="#242938"/>
<path fill-rule="evenodd" clip-rule="evenodd" d="M1485.05 1687.42C1490.91 1663.98 1505.56 1652.27 1529 1652.27C1564.16 1652.27 1568.55 1678.63 1586.13 1683.03C1597.85 1685.96 1608.1 1681.56 1616.89 1669.84C1611.03 1693.28 1596.38 1705 1572.95 1705C1537.79 1705 1533.39 1678.63 1515.82 1674.24C1504.1 1671.31 1493.84 1675.7 1485.05 1687.42ZM1441.11 1740.16C1446.97 1716.72 1461.62 1705 1485.05 1705C1520.21 1705 1524.61 1731.37 1542.18 1735.76C1553.9 1738.69 1564.16 1734.3 1572.95 1722.58C1567.09 1746.02 1552.44 1757.73 1529 1757.73C1493.84 1757.73 1489.45 1731.37 1471.87 1726.97C1460.15 1724.04 1449.9 1728.44 1441.11 1740.16Z" fill="url(#paint8_linear_1_99)"/>
<defs>
<linearGradient id="paint0_linear_1_99" x1="149.189" y1="178.669" x2="260.427" y2="273.532" gradientUnits="userSpaceOnUse">
<stop stop-color="#5A9FD4"/>
<stop offset="1" stop-color="#306998"/>
</linearGradient>
<linearGradient id="paint1_linear_1_99" x1="302.279" y1="332.501" x2="262.387" y2="276.559" gradientUnits="userSpaceOnUse">
<stop stop-color="#FFD43B"/>
<stop offset="1" stop-color="#FFE873"/>
</linearGradient>
<radialGradient id="paint2_radial_1_99" cx="0" cy="0" r="1" gradientUnits="userSpaceOnUse" gradientTransform="translate(254.165 382.229) rotate(-90) scale(12.5358 55.1052)">
<stop stop-color="#B8B8B8" stop-opacity="0.498"/>
<stop offset="1" stop-color="#7F7F7F" stop-opacity="0"/>
</radialGradient>
<linearGradient id="paint3_linear_1_99" x1="3992.14" y1="1858.58" x2="1325.52" y2="6048.65" gradientUnits="userSpaceOnUse">
<stop stop-color="#41873F"/>
<stop offset="0.3288" stop-color="#418B3D"/>
<stop offset="0.6352" stop-color="#419637"/>
<stop offset="0.9319" stop-color="#3FA92D"/>
<stop offset="1" stop-color="#3FAE2A"/>
</linearGradient>
<linearGradient id="paint4_linear_1_99" x1="2580.12" y1="4197.04" x2="9258.59" y2="568.597" gradientUnits="userSpaceOnUse">
<stop offset="0.1376" stop-color="#41873F"/>
<stop offset="0.4032" stop-color="#54A044"/>
<stop offset="0.7136" stop-color="#66B848"/>
<stop offset="0.9081" stop-color="#6CC04A"/>
</linearGradient>
<linearGradient id="paint5_linear_1_99" x1="44.3662" y1="3878.42" x2="5673.95" y2="3878.42" gradientUnits="userSpaceOnUse">
<stop offset="0.09192" stop-color="#6CC04A"/>
<stop offset="0.2864" stop-color="#66B848"/>
<stop offset="0.5968" stop-color="#54A044"/>
<stop offset="0.8624" stop-color="#41873F"/>
</linearGradient>
<linearGradient id="paint6_linear_1_99" x1="-2552.96" y1="1681.41" x2="3076.57" y2="1681.41" gradientUnits="userSpaceOnUse">
<stop offset="0.09192" stop-color="#6CC04A"/>
<stop offset="0.2864" stop-color="#66B848"/>
<stop offset="0.5968" stop-color="#54A044"/>
<stop offset="0.8624" stop-color="#41873F"/>
</linearGradient>
<linearGradient id="paint7_linear_1_99" x1="3896.72" y1="-2804.04" x2="2470.54" y2="4669.1" gradientUnits="userSpaceOnUse">
<stop stop-color="#41873F"/>
<stop offset="0.3288" stop-color="#418B3D"/>
<stop offset="0.6352" stop-color="#419637"/>
<stop offset="0.9319" stop-color="#3FA92D"/>
<stop offset="1" stop-color="#3FAE2A"/>
</linearGradient>
<linearGradient id="paint8_linear_1_99" x1="1488.47" y1="1652.27" x2="1563.67" y2="1761.15" gradientUnits="userSpaceOnUse">
<stop stop-color="#32B1C1"/>
<stop offset="1" stop-color="#14C6B7"/>
</linearGradient>
</defs>
</svg>
